<?xml version="1.0" encoding="UTF-8" standalone="no"?>
<!-- Created with Inkscape (http://www.inkscape.org/) -->

<svg
   xmlns:osb="http://www.openswatchbook.org/uri/2009/osb"
   xmlns:dc="http://purl.org/dc/elements/1.1/"
   xmlns:cc="http://creativecommons.org/ns#"
   xmlns:rdf="http://www.w3.org/1999/02/22-rdf-syntax-ns#"
   xmlns:svg="http://www.w3.org/2000/svg"
   xmlns="http://www.w3.org/2000/svg"
   xmlns:sodipodi="http://sodipodi.sourceforge.net/DTD/sodipodi-0.dtd"
   xmlns:inkscape="http://www.inkscape.org/namespaces/inkscape"
   width="500"
   height="500"
   id="svg2"
   version="1.1"
   inkscape:version="0.48.4 r9939"
   sodipodi:docname="moleculesColliding.pdf"
   inkscape:export-filename="/home/jorgehog/Presentations/qMDPresentationPGP/moleculesColliding.jpg.png"
   inkscape:export-xdpi="90"
   inkscape:export-ydpi="90">
  <sodipodi:namedview
     id="base"
     pagecolor="#ffffff"
     bordercolor="#666666"
     borderopacity="1.0"
     inkscape:pageopacity="0.0"
     inkscape:pageshadow="2"
     inkscape:zoom="0.98994949"
     inkscape:cx="297.11531"
     inkscape:cy="236.06365"
     inkscape:document-units="px"
     inkscape:current-layer="layer1"
     showgrid="false"
     inkscape:window-width="1215"
     inkscape:window-height="1000"
     inkscape:window-x="65"
     inkscape:window-y="24"
     inkscape:window-maximized="1" />
  <defs
     id="defs4">
    <marker
       style="overflow:visible;"
       id="Arrow1Lend"
       refX="0.0"
       refY="0.0"
       orient="auto"
       inkscape:stockid="Arrow1Lend">
      <path
         transform="scale(0.8) rotate(180) translate(12.5,0)"
         style="fill-rule:evenodd;stroke:#000000;stroke-width:1.0pt;"
         d="M 0.0,0.0 L 5.0,-5.0 L -12.5,0.0 L 5.0,5.0 L 0.0,0.0 z "
         id="path5238" />
    </marker>
    <linearGradient
       osb:paint="solid"
       id="linearGradient5215">
      <stop
         id="stop5217"
         offset="0"
         style="stop-color:#000000;stop-opacity:1;" />
    </linearGradient>
    <linearGradient
       osb:paint="gradient"
       id="linearGradient3759">
      <stop
         id="stop3761"
         offset="0"
         style="stop-color:#008000;stop-opacity:1;" />
      <stop
         id="stop3763"
         offset="1"
         style="stop-color:#008000;stop-opacity:0;" />
    </linearGradient>
  </defs>
  <metadata
     id="metadata7">
    <rdf:RDF>
      <cc:Work
         rdf:about="">
        <dc:format>image/svg+xml</dc:format>
        <dc:type
           rdf:resource="http://purl.org/dc/dcmitype/StillImage" />
        <dc:title></dc:title>
      </cc:Work>
    </rdf:RDF>
  </metadata>
  <g
     transform="translate(0,-552.36215)"
     id="layer1"
     inkscape:groupmode="layer"
     inkscape:label="Layer 1">
    <path
       transform="matrix(1.2962316,0,0,0.94589872,84.638567,531.99733)"
       d="m 121.2183,168.66997 c 0,41.28399 -24.422074,74.75129 -54.548233,74.75129 -30.12616,0 -54.548237,-33.4673 -54.548237,-74.75129 0,-41.284 24.422077,-74.751292 54.548237,-74.751292 30.126159,0 54.548233,33.467292 54.548233,74.751292 z"
       sodipodi:ry="74.751289"
       sodipodi:rx="54.548237"
       sodipodi:cy="168.66997"
       sodipodi:cx="66.670067"
       id="path2987"
       style="opacity:0.98000004;fill:#e6e6e6;stroke:#008000;stroke-width:6.23614836;stroke-miterlimit:4;stroke-opacity:1;stroke-dasharray:none"
       sodipodi:type="arc" />
    <path
       sodipodi:type="arc"
       style="opacity:0.98000004;fill:#cccccc;stroke:#008000;stroke-width:6.23614836;stroke-miterlimit:4;stroke-dasharray:none"
       id="path3757"
       sodipodi:cx="66.670067"
       sodipodi:cy="168.66997"
       sodipodi:rx="54.548237"
       sodipodi:ry="74.751289"
       d="m 121.2183,168.66997 c 0,41.28399 -24.422074,74.75129 -54.548233,74.75129 -30.12616,0 -54.548237,-33.4673 -54.548237,-74.75129 0,-41.284 24.422077,-74.751292 54.548237,-74.751292 30.126159,0 54.548233,33.467292 54.548233,74.751292 z"
       transform="matrix(0.65177453,0,0,0.47561924,393.44978,690.17471)" />
    <path
       inkscape:connector-curvature="0"
       id="path5229"
       d="M 438.5967,768.42775 225.87556,971.4452"
       style="fill:none;stroke:#000000;stroke-width:3.29999995;stroke-linecap:butt;stroke-linejoin:miter;stroke-miterlimit:4;stroke-opacity:1;stroke-dasharray:none;marker-end:url(#Arrow1Lend)" />
    <path
       inkscape:connector-curvature="0"
       id="path5859"
       d="M 175.67368,691.90593 36.458355,565.54915"
       style="fill:none;stroke:#000000;stroke-width:3.29999995;stroke-linecap:butt;stroke-linejoin:miter;stroke-miterlimit:4;stroke-opacity:1;stroke-dasharray:none;marker-end:url(#Arrow1Lend)" />
    <text
       transform="translate(0,552.36215)"
       sodipodi:linespacing="125%"
       id="text6043"
       y="89.878067"
       x="116.16754"
       style="font-size:40px;font-style:normal;font-weight:normal;line-height:125%;letter-spacing:0px;word-spacing:0px;fill:#000000;fill-opacity:1;stroke:none;font-family:Sans"
       xml:space="preserve"><tspan
         y="89.878067"
         x="116.16754"
         id="tspan6045"
         sodipodi:role="line" /></text>
    <g
       style="fill:#800000"
       transform="translate(58.571424,601.42858)"
       id="g6283">
      <g
         style="font-style:normal;font-variant:normal;font-weight:normal;font-stretch:normal;letter-spacing:normal;word-spacing:normal;text-anchor:start;fill:#800000;stroke:#000000;stroke-linecap:butt;stroke-linejoin:miter;stroke-miterlimit:10.43299961;stroke-opacity:1;stroke-dasharray:none;stroke-dashoffset:0"
         id="g6285"
         transform="matrix(0.71428571,0,0,-0.71428571,-125,375)"
         xml:space="preserve"
         stroke-miterlimit="10.433"
         font-style="normal"
         font-variant="normal"
         font-weight="normal"
         font-stretch="normal"
         font-size-adjust="none"
         letter-spacing="normal"
         word-spacing="normal"><path
           style="fill:#800000;stroke-width:0"
           inkscape:connector-curvature="0"
           d="m 487.6,440.07 h -30.14 v -2.34 h 5.39 v -29.19 h -5.39 v -2.34 c 1.9,0.16 6.93,0.16 9.12,0.16 2.44,0 7.88,0 10.06,-0.16 v 2.34 h -6.73 V 422 h 2.5 c 4.78,0 5.23,-2.14 5.23,-5.83 h 2.35 v 14 h -2.35 c 0,-3.69 -0.4,-5.83 -5.23,-5.83 h -2.5 v 13.39 h 6.98 c 8.02,0 9.18,-3.83 9.91,-9.66 h 2.34 z"
           id="path6287" /><path
           style="fill:#800000;stroke-width:0"
           inkscape:connector-curvature="0"
           d="m 502.82,420.54 -0.01,0.05 0,0.06 -0.01,0.05 0,0.06 -0.02,0.05 -0.01,0.06 -0.02,0.05 -0.02,0.06 -0.02,0.06 -0.02,0.05 -0.03,0.06 -0.03,0.05 -0.03,0.06 -0.04,0.05 -0.04,0.05 -0.04,0.05 -0.04,0.05 -0.05,0.05 -0.05,0.04 -0.05,0.05 -0.06,0.04 -0.06,0.03 -0.06,0.04 -0.06,0.03 -0.07,0.03 -0.07,0.03 -0.08,0.02 -0.08,0.02 -0.08,0.01 -0.08,0.01 -0.09,0.01 -0.09,0 c -0.94,0 -1.95,-0.91 -1.95,-1.92 0,-0.59 0.45,-1.33 1.4,-1.33 1,0 1.96,0.99 1.96,1.92 z"
           id="path6289" /><path
           style="fill:#800000;stroke-width:0"
           inkscape:connector-curvature="0"
           d="m 495.71,402.84 -0.06,-0.17 -0.05,-0.17 -0.03,-0.08 -0.02,-0.09 -0.03,-0.08 -0.02,-0.09 -0.02,-0.09 -0.02,-0.09 -0.02,-0.1 -0.02,-0.09 -0.01,-0.1 0,-0.05 -0.01,-0.05 0,-0.06 0,-0.05 0,-0.05 -0.01,-0.06 c 0,-1.64 1.4,-2.95 3.3,-2.95 3.49,0 5.03,4.79 5.03,5.33 0,0.45 -0.45,0.45 -0.56,0.45 -0.48,0 -0.53,-0.2 -0.67,-0.59 -0.8,-2.79 -2.33,-4.22 -3.69,-4.22 -0.7,0 -0.87,0.45 -0.87,1.22 0,0.79 0.25,1.46 0.56,2.23 0.34,0.94 0.73,1.87 1.11,2.78 0.31,0.84 1.58,4.02 1.72,4.44 0.09,0.34 0.2,0.76 0.2,1.11 0,1.64 -1.39,2.95 -3.31,2.95 -3.46,0 -5.05,-4.73 -5.05,-5.33 0,-0.45 0.48,-0.45 0.59,-0.45 0.49,0 0.52,0.17 0.63,0.56 0.91,3 2.44,4.25 3.72,4.25 0.56,0 0.87,-0.28 0.87,-1.22 0,-0.79 -0.2,-1.32 -1.08,-3.48 z"
           id="path6291" /><path
           style="fill:#800000;stroke-width:0"
           inkscape:connector-curvature="0"
           d="m 520.85,420.54 0,0.06 0,0.06 -0.01,0.05 -0.01,0.06 -0.01,0.06 -0.01,0.06 -0.02,0.05 -0.02,0.06 -0.02,0.06 -0.03,0.05 -0.03,0.06 -0.03,0.05 -0.03,0.06 -0.04,0.05 -0.04,0.05 -0.04,0.05 -0.04,0.05 -0.05,0.04 -0.05,0.05 -0.05,0.04 -0.06,0.04 -0.06,0.03 -0.06,0.04 -0.06,0.03 -0.07,0.02 -0.07,0.03 -0.07,0.02 -0.08,0.02 -0.07,0.01 -0.08,0.01 -0.09,0.01 -0.08,0 c -1.02,0 -1.96,-0.98 -1.96,-1.92 0,-0.56 0.42,-1.33 1.39,-1.33 0.94,0 1.95,0.91 1.95,1.92 z"
           id="path6293" /><path
           style="fill:#800000;stroke-width:0"
           inkscape:connector-curvature="0"
           d="m 513.47,397.06 -0.06,-0.23 -0.07,-0.22 -0.07,-0.22 -0.08,-0.21 -0.09,-0.21 -0.09,-0.21 -0.1,-0.21 -0.11,-0.2 -0.11,-0.19 -0.12,-0.19 -0.12,-0.19 -0.13,-0.18 -0.13,-0.17 -0.13,-0.17 -0.15,-0.16 -0.14,-0.15 -0.15,-0.15 -0.16,-0.14 -0.16,-0.13 -0.16,-0.13 -0.16,-0.11 -0.17,-0.11 -0.17,-0.1 -0.18,-0.09 -0.18,-0.08 -0.18,-0.07 -0.18,-0.06 -0.18,-0.05 -0.19,-0.04 -0.19,-0.03 -0.19,-0.02 -0.19,0 c -0.45,0 -0.87,0.06 -1.27,0.2 0.91,0.42 1.19,1.25 1.19,1.78 0,0.83 -0.65,1.28 -1.36,1.28 -1.08,0 -1.98,-0.94 -1.98,-2.04 0,-1.33 1.36,-2.21 3.45,-2.21 2.1,0 6.16,1.25 7.25,5.5 l 3.13,12.49 c 0.11,0.37 0.17,0.68 0.17,1.22 0,1.9 -1.63,3.26 -3.72,3.26 -3.88,0 -6.09,-4.84 -6.09,-5.33 0,-0.45 0.48,-0.45 0.59,-0.45 0.41,0 0.45,0.11 0.69,0.62 0.87,2.04 2.69,4.19 4.7,4.19 0.87,0 1.19,-0.59 1.19,-1.7 0,-0.39 -0.07,-0.88 -0.11,-1.05 z"
           id="path6295" /><path
           style="fill:#800000;stroke-width:0"
           inkscape:connector-curvature="0"
           d="m 574.72,422.5 0.13,0 0.15,0 0.14,0 0.08,0.01 0.07,0 0.07,0.01 0.07,0.01 0.07,0.01 0.07,0.01 0.07,0.01 0.07,0.02 0.06,0.02 0.06,0.02 0.06,0.02 0.06,0.03 0.06,0.03 0.05,0.04 0.05,0.03 0.05,0.05 0.04,0.04 0.04,0.05 0.02,0.03 0.02,0.03 0.01,0.02 0.02,0.03 0.01,0.03 0.02,0.04 0.01,0.03 0.01,0.04 0.01,0.03 0.01,0.04 0.01,0.04 0,0.04 0.01,0.04 0,0.04 0,0.04 0,0.05 c 0,1 -0.95,1 -1.64,1 h -29.84 c -0.7,0 -1.64,0 -1.64,-1 0,-0.98 0.94,-0.98 1.69,-0.98 z"
           id="path6297" /><path
           style="fill:#800000;stroke-width:0"
           inkscape:connector-curvature="0"
           d="m 574.76,412.82 0.07,0 0.06,0 0.14,0.01 0.14,0 0.07,0 0.07,0.01 0.07,0.01 0.07,0 0.07,0.01 0.06,0.02 0.07,0.01 0.06,0.02 0.07,0.02 0.06,0.02 0.06,0.02 0.06,0.03 0.05,0.03 0.05,0.04 0.05,0.04 0.05,0.04 0.04,0.05 0.02,0.02 0.02,0.03 0.02,0.02 0.02,0.03 0.01,0.03 0.02,0.03 0.01,0.03 0.02,0.03 0.01,0.04 0.01,0.03 0.01,0.04 0.01,0.04 0.01,0.04 0,0.04 0.01,0.04 0,0.04 0,0.05 0,0.04 c 0,1 -0.95,1 -1.68,1 h -29.75 c -0.75,0 -1.69,0 -1.69,-1 0,-1 0.94,-1 1.64,-1 z"
           id="path6299" /><path
           style="fill:#800000;stroke-width:0"
           inkscape:connector-curvature="0"
           d="m 625.98,417.65 0.16,0 0.16,0 0.16,0.01 0.08,0 0.07,0.01 0.08,0 0.07,0.01 0.08,0.01 0.07,0.01 0.07,0.02 0.07,0.02 0.06,0.02 0.07,0.02 0.06,0.02 0.05,0.03 0.06,0.03 0.05,0.04 0.05,0.03 0.05,0.05 0.04,0.04 0.04,0.05 0.02,0.03 0.01,0.03 0.02,0.03 0.01,0.03 0.02,0.03 0.01,0.03 0.01,0.04 0.01,0.03 0.01,0.04 0.01,0.04 0.01,0.04 0,0.04 0.01,0.04 0,0.04 0,0.05 0,0.04 c 0,1 -0.9,1 -1.75,1 h -26.95 c -0.84,0 -1.73,0 -1.73,-1 0,-1 0.89,-1 1.73,-1 z"
           id="path6301" /><path
           style="fill:#800000;stroke-width:0"
           inkscape:connector-curvature="0"
           d="m 670.77,435.3 0.01,0.01 0.01,0.02 0.01,0.01 0.01,0.02 0.01,0.02 0.01,0.02 0.01,0.02 0.01,0.02 0.01,0.02 0.01,0.02 0.01,0.02 0.01,0.03 0.02,0.04 0.02,0.05 0.02,0.05 0.02,0.05 0.01,0.03 0,0.02 0.01,0.02 0.01,0.03 0,0.02 0.01,0.02 0,0.03 0.01,0.02 0,0.02 0,0.02 0,0.02 0,0.01 c 0,0.36 -0.04,0.41 -1.18,0.41 h -34.39 c -1.15,0 -1.19,-0.05 -1.19,-0.41 0,-0.18 0.14,-0.54 0.25,-0.68 l 16.78,-33.64 c 0.36,-0.64 0.5,-0.94 1.34,-0.94 0.86,0 1,0.3 1.36,0.94 l 0.14,3.75 -13.7,27.39 h 27.36 l -13.66,-27.39 -0.14,-3.75 z"
           id="path6303" /><path
           style="fill:#800000;stroke-width:0"
           inkscape:connector-curvature="0"
           d="m 704.72,434.54 0.22,0.36 0.23,0.33 0.23,0.31 0.22,0.29 0.22,0.28 0.22,0.25 0.21,0.24 0.22,0.22 0.21,0.2 0.21,0.19 0.21,0.17 0.21,0.16 0.2,0.14 0.21,0.13 0.2,0.12 0.2,0.11 0.2,0.09 0.19,0.09 0.2,0.07 0.19,0.07 0.19,0.06 0.19,0.05 0.19,0.04 0.18,0.03 0.19,0.03 0.18,0.03 0.36,0.04 0.36,0.02 0.34,0.02 c 0.6,0.05 0.65,0.89 0.65,0.96 0,0.39 -0.25,0.59 -0.65,0.59 -1.29,0 -2.75,-0.16 -4.09,-0.16 -1.64,0 -3.34,0.16 -4.94,0.16 -0.29,0 -0.93,0 -0.93,-0.95 0,-0.55 0.45,-0.6 0.79,-0.6 1.35,-0.09 2.3,-0.59 2.3,-1.64 0,-0.75 -0.75,-1.84 -0.75,-1.89 l -15.3,-24.31 -3.39,26.34 c 0,0.85 1.14,1.5 3.44,1.5 0.7,0 1.25,0 1.25,1 0,0.44 -0.41,0.55 -0.7,0.55 -1.99,0 -4.14,-0.16 -6.18,-0.16 -0.9,0 -1.84,0.05 -2.75,0.05 -0.88,0 -1.84,0.11 -2.68,0.11 -0.35,0 -0.94,0 -0.94,-0.95 0,-0.6 0.44,-0.6 1.24,-0.6 2.79,0 2.84,-0.45 3,-1.68 l 3.92,-30.75 c 0.15,-1 0.36,-1.14 1,-1.14 0.79,0 1,0.25 1.4,0.89 z"
           id="path6305" /><path
           style="fill:#800000;stroke-width:0"
           inkscape:connector-curvature="0"
           d="m 713.78,420.54 0,0.05 -0.01,0.06 0,0.05 -0.01,0.06 -0.01,0.05 -0.02,0.06 -0.02,0.05 -0.01,0.06 -0.03,0.06 -0.02,0.05 -0.03,0.06 -0.03,0.05 -0.03,0.06 -0.04,0.05 -0.04,0.05 -0.04,0.05 -0.04,0.05 -0.05,0.05 -0.05,0.04 -0.05,0.05 -0.06,0.04 -0.06,0.03 -0.06,0.04 -0.06,0.03 -0.07,0.03 -0.07,0.03 -0.08,0.02 -0.08,0.02 -0.08,0.01 -0.08,0.01 -0.09,0.01 -0.09,0 c -0.94,0 -1.95,-0.91 -1.95,-1.92 0,-0.59 0.45,-1.33 1.4,-1.33 1,0 1.96,0.99 1.96,1.92 z"
           id="path6307" /><path
           style="fill:#800000;stroke-width:0"
           inkscape:connector-curvature="0"
           d="m 706.67,402.84 -0.06,-0.17 -0.05,-0.17 -0.03,-0.08 -0.02,-0.09 -0.03,-0.08 -0.02,-0.09 -0.02,-0.09 -0.02,-0.09 -0.02,-0.1 -0.02,-0.09 -0.01,-0.1 0,-0.05 -0.01,-0.05 0,-0.06 0,-0.05 0,-0.05 -0.01,-0.06 c 0,-1.64 1.4,-2.95 3.3,-2.95 3.49,0 5.03,4.79 5.03,5.33 0,0.45 -0.45,0.45 -0.56,0.45 -0.48,0 -0.53,-0.2 -0.67,-0.59 -0.8,-2.79 -2.33,-4.22 -3.69,-4.22 -0.7,0 -0.87,0.45 -0.87,1.22 0,0.79 0.25,1.46 0.56,2.23 0.34,0.94 0.73,1.87 1.11,2.78 0.31,0.84 1.58,4.02 1.72,4.44 0.09,0.34 0.2,0.76 0.2,1.11 0,1.64 -1.39,2.95 -3.31,2.95 -3.45,0 -5.05,-4.73 -5.05,-5.33 0,-0.45 0.48,-0.45 0.6,-0.45 0.48,0 0.51,0.17 0.62,0.56 0.91,3 2.44,4.25 3.72,4.25 0.56,0 0.87,-0.28 0.87,-1.22 0,-0.79 -0.2,-1.32 -1.08,-3.48 z"
           id="path6309" /><path
           style="fill:#800000;stroke-width:0"
           inkscape:connector-curvature="0"
           d="m 731.82,420.54 -0.01,0.06 0,0.06 -0.01,0.05 -0.01,0.06 -0.01,0.06 -0.01,0.06 -0.02,0.05 -0.02,0.06 -0.02,0.06 -0.03,0.05 -0.03,0.06 -0.03,0.05 -0.03,0.06 -0.04,0.05 -0.04,0.05 -0.04,0.05 -0.04,0.05 -0.05,0.04 -0.05,0.05 -0.05,0.04 -0.06,0.04 -0.06,0.03 -0.06,0.04 -0.06,0.03 -0.07,0.02 -0.07,0.03 -0.07,0.02 -0.08,0.02 -0.07,0.01 -0.08,0.01 -0.09,0.01 -0.08,0 c -1.02,0 -1.96,-0.98 -1.96,-1.92 0,-0.56 0.43,-1.33 1.39,-1.33 0.94,0 1.96,0.91 1.96,1.92 z"
           id="path6311" /><path
           style="fill:#800000;stroke-width:0"
           inkscape:connector-curvature="0"
           d="m 724.43,397.06 -0.06,-0.23 -0.07,-0.22 -0.07,-0.22 -0.08,-0.21 -0.09,-0.21 -0.09,-0.21 -0.1,-0.21 -0.11,-0.2 -0.11,-0.19 -0.12,-0.19 -0.12,-0.19 -0.12,-0.18 -0.14,-0.17 -0.13,-0.17 -0.15,-0.16 -0.14,-0.15 -0.15,-0.15 -0.16,-0.14 -0.15,-0.13 -0.17,-0.13 -0.16,-0.11 -0.17,-0.11 -0.17,-0.1 -0.18,-0.09 -0.18,-0.08 -0.18,-0.07 -0.18,-0.06 -0.18,-0.05 -0.19,-0.04 -0.19,-0.03 -0.19,-0.02 -0.19,0 c -0.45,0 -0.87,0.06 -1.26,0.2 0.9,0.42 1.18,1.25 1.18,1.78 0,0.83 -0.65,1.28 -1.36,1.28 -1.07,0 -1.98,-0.94 -1.98,-2.04 0,-1.33 1.36,-2.21 3.45,-2.21 2.1,0 6.16,1.25 7.25,5.5 l 3.13,12.49 c 0.11,0.37 0.17,0.68 0.17,1.22 0,1.9 -1.62,3.26 -3.72,3.26 -3.87,0 -6.09,-4.84 -6.09,-5.33 0,-0.45 0.48,-0.45 0.59,-0.45 0.41,0 0.45,0.11 0.69,0.62 0.87,2.04 2.69,4.19 4.7,4.19 0.88,0 1.19,-0.59 1.19,-1.7 0,-0.39 -0.06,-0.88 -0.11,-1.05 z"
           id="path6313" /></g>    </g>
    <g
       transform="translate(137.14286,805.71429)"
       id="g6398">
      <g
         style="font-style:normal;font-variant:normal;font-weight:normal;font-stretch:normal;letter-spacing:normal;word-spacing:normal;text-anchor:start;fill:none;stroke:#000000;stroke-linecap:butt;stroke-linejoin:miter;stroke-miterlimit:10.43299961;stroke-opacity:1;stroke-dasharray:none;stroke-dashoffset:0"
         word-spacing="normal"
         letter-spacing="normal"
         font-size-adjust="none"
         font-stretch="normal"
         font-weight="normal"
         font-variant="normal"
         font-style="normal"
         stroke-miterlimit="10.433"
         xml:space="preserve"
         transform="matrix(0.71428571,0,0,-0.71428571,-125,375)"
         id="content"><path
           style="fill:#000000;stroke-width:0"
           inkscape:connector-curvature="0"
           id="path6401"
           d="m 480.72,424.93 0.06,0.13 0.06,0.12 0.03,0.06 0.04,0.05 0.03,0.05 0.04,0.05 0.05,0.05 0.04,0.05 0.06,0.04 0.06,0.04 0.06,0.04 0.07,0.04 0.08,0.04 0.09,0.03 0.09,0.03 0.11,0.03 0.11,0.03 0.13,0.02 0.13,0.03 0.07,0.01 0.08,0.01 0.07,0.01 0.08,0.01 0.09,0.01 0.08,0.01 0.09,0 0.1,0.01 0.09,0.01 0.1,0 0.11,0.01 0.1,0 0.11,0.01 0.12,0 0.12,0.01 0.12,0 0.13,0 0.13,0.01 0.13,0 0.14,0 0.14,0 0.15,0 v 2.34 c -1.23,-0.11 -2.69,-0.15 -3.94,-0.15 -1.23,0 -3.48,0.11 -4.53,0.15 v -2.34 c 0.95,0 2.39,-0.16 2.39,-0.55 0,-0.04 -0.04,-0.15 -0.25,-0.59 l -5.76,-12.47 -6.33,13.61 h 2.69 v 2.34 c -1.64,-0.11 -6.13,-0.15 -6.19,-0.15 -1.39,0 -3.63,0.11 -5.67,0.15 v -2.34 H 460 l 8.72,-18.73 c 0.6,-1.25 1.25,-1.25 1.89,-1.25 0.85,0 1.35,0.15 1.85,1.2 z" /><path
           style="fill:#000000;stroke-width:0"
           inkscape:connector-curvature="0"
           id="path6403"
           d="m 501.06,420.54 0,0.06 -0.01,0.06 0,0.05 -0.01,0.06 -0.01,0.06 -0.02,0.06 -0.02,0.05 -0.02,0.06 -0.02,0.06 -0.02,0.05 -0.03,0.06 -0.03,0.05 -0.04,0.06 -0.03,0.05 -0.04,0.05 -0.05,0.05 -0.04,0.05 -0.05,0.04 -0.05,0.05 -0.05,0.04 -0.06,0.04 -0.05,0.03 -0.07,0.04 -0.06,0.03 -0.07,0.02 -0.07,0.03 -0.07,0.02 -0.07,0.02 -0.08,0.01 -0.08,0.01 -0.09,0.01 -0.08,0 c -1.02,0 -1.96,-0.98 -1.96,-1.92 0,-0.56 0.43,-1.33 1.4,-1.33 0.93,0 1.95,0.91 1.95,1.92 z" /><path
           style="fill:#000000;stroke-width:0"
           inkscape:connector-curvature="0"
           id="path6405"
           d="m 493.67,397.06 -0.06,-0.23 -0.07,-0.22 -0.07,-0.22 -0.08,-0.21 -0.09,-0.21 -0.09,-0.21 -0.1,-0.21 -0.11,-0.2 -0.11,-0.19 -0.11,-0.19 -0.13,-0.19 -0.12,-0.18 -0.13,-0.17 -0.14,-0.17 -0.14,-0.16 -0.15,-0.15 -0.15,-0.15 -0.15,-0.14 -0.16,-0.13 -0.16,-0.13 -0.17,-0.11 -0.17,-0.11 -0.17,-0.1 -0.18,-0.09 -0.17,-0.08 -0.18,-0.07 -0.19,-0.06 -0.18,-0.05 -0.19,-0.04 -0.19,-0.03 -0.18,-0.02 -0.2,0 c -0.45,0 -0.87,0.06 -1.26,0.2 0.9,0.42 1.19,1.25 1.19,1.78 0,0.83 -0.66,1.28 -1.36,1.28 -1.08,0 -1.99,-0.94 -1.99,-2.04 0,-1.33 1.36,-2.21 3.45,-2.21 2.1,0 6.16,1.25 7.25,5.5 l 3.13,12.49 c 0.11,0.37 0.17,0.68 0.17,1.22 0,1.9 -1.62,3.26 -3.72,3.26 -3.87,0 -6.09,-4.84 -6.09,-5.33 0,-0.45 0.48,-0.45 0.59,-0.45 0.41,0 0.46,0.11 0.69,0.62 0.88,2.04 2.69,4.19 4.7,4.19 0.88,0 1.19,-0.59 1.19,-1.7 0,-0.39 -0.06,-0.88 -0.11,-1.05 z" /></g>    </g>
    <g
       transform="translate(-102.85714,520)"
       id="g6483">
      <g
         style="font-style:normal;font-variant:normal;font-weight:normal;font-stretch:normal;letter-spacing:normal;word-spacing:normal;text-anchor:start;fill:none;stroke:#000000;stroke-linecap:butt;stroke-linejoin:miter;stroke-miterlimit:10.43299961;stroke-opacity:1;stroke-dasharray:none;stroke-dashoffset:0"
         id="g6485"
         transform="matrix(0.71428571,0,0,-0.71428571,-125,375)"
         xml:space="preserve"
         stroke-miterlimit="10.433"
         font-style="normal"
         font-variant="normal"
         font-weight="normal"
         font-stretch="normal"
         font-size-adjust="none"
         letter-spacing="normal"
         word-spacing="normal"><path
           style="fill:#000000;stroke-width:0"
           inkscape:connector-curvature="0"
           d="m 480.72,424.93 0.06,0.13 0.06,0.12 0.03,0.06 0.04,0.05 0.03,0.05 0.04,0.05 0.05,0.05 0.04,0.05 0.06,0.04 0.06,0.04 0.06,0.04 0.07,0.04 0.08,0.04 0.09,0.03 0.09,0.03 0.11,0.03 0.11,0.03 0.13,0.02 0.13,0.03 0.07,0.01 0.08,0.01 0.07,0.01 0.08,0.01 0.09,0.01 0.08,0.01 0.09,0 0.1,0.01 0.09,0.01 0.1,0 0.11,0.01 0.1,0 0.11,0.01 0.12,0 0.12,0.01 0.12,0 0.13,0 0.13,0.01 0.13,0 0.14,0 0.14,0 0.15,0 v 2.34 c -1.23,-0.11 -2.69,-0.15 -3.94,-0.15 -1.23,0 -3.48,0.11 -4.53,0.15 v -2.34 c 0.95,0 2.39,-0.16 2.39,-0.55 0,-0.04 -0.04,-0.15 -0.25,-0.59 l -5.76,-12.47 -6.33,13.61 h 2.69 v 2.34 c -1.64,-0.11 -6.13,-0.15 -6.19,-0.15 -1.39,0 -3.63,0.11 -5.67,0.15 v -2.34 H 460 l 8.72,-18.73 c 0.6,-1.25 1.25,-1.25 1.89,-1.25 0.85,0 1.35,0.15 1.85,1.2 z"
           id="path6487" /><path
           style="fill:#000000;stroke-width:0"
           inkscape:connector-curvature="0"
           d="m 497.06,420.54 0,0.05 -0.01,0.06 0,0.05 -0.01,0.06 -0.01,0.05 -0.02,0.06 -0.01,0.05 -0.02,0.06 -0.02,0.06 -0.03,0.05 -0.03,0.06 -0.03,0.05 -0.03,0.06 -0.04,0.05 -0.03,0.05 -0.05,0.05 -0.04,0.05 -0.05,0.05 -0.05,0.04 -0.05,0.05 -0.06,0.04 -0.06,0.03 -0.06,0.04 -0.06,0.03 -0.07,0.03 -0.07,0.03 -0.08,0.02 -0.07,0.02 -0.09,0.01 -0.08,0.01 -0.09,0.01 -0.09,0 c -0.94,0 -1.95,-0.91 -1.95,-1.92 0,-0.59 0.45,-1.33 1.41,-1.33 1,0 1.95,0.99 1.95,1.92 z"
           id="path6489" /><path
           style="fill:#000000;stroke-width:0"
           inkscape:connector-curvature="0"
           d="m 489.95,402.84 -0.05,-0.17 -0.06,-0.17 -0.03,-0.08 -0.02,-0.09 -0.03,-0.08 -0.02,-0.09 -0.02,-0.09 -0.02,-0.09 -0.02,-0.1 -0.01,-0.09 -0.02,-0.1 0,-0.05 -0.01,-0.05 0,-0.06 0,-0.05 0,-0.05 0,-0.06 c 0,-1.64 1.39,-2.95 3.29,-2.95 3.49,0 5.03,4.79 5.03,5.33 0,0.45 -0.45,0.45 -0.56,0.45 -0.48,0 -0.53,-0.2 -0.67,-0.59 -0.8,-2.79 -2.33,-4.22 -3.69,-4.22 -0.7,0 -0.87,0.45 -0.87,1.22 0,0.79 0.25,1.46 0.56,2.23 0.34,0.94 0.73,1.87 1.11,2.78 0.31,0.84 1.58,4.02 1.72,4.44 0.09,0.34 0.2,0.76 0.2,1.11 0,1.64 -1.39,2.95 -3.31,2.95 -3.45,0 -5.05,-4.73 -5.05,-5.33 0,-0.45 0.49,-0.45 0.6,-0.45 0.48,0 0.51,0.17 0.62,0.56 0.91,3 2.44,4.25 3.72,4.25 0.56,0 0.87,-0.28 0.87,-1.22 0,-0.79 -0.2,-1.32 -1.07,-3.48 z"
           id="path6491" /></g>    </g>
    <path
       inkscape:connector-curvature="0"
       id="path6535"
       d="M 173.74624,691.33669 436.3859,768.10828"
       style="fill:#800000;stroke:#800000;stroke-width:3.29999995;stroke-linecap:butt;stroke-linejoin:miter;stroke-miterlimit:4;stroke-opacity:1;stroke-dasharray:none;marker-mid:none;marker-end:none" />
    <rect
       y="999.34723"
       x="425.52063"
       height="37.73568"
       width="49.839577"
       id="rect8917"
       style="opacity:0.98000004;fill:none;stroke:#800000;stroke-width:2.3259654;stroke-miterlimit:4;stroke-opacity:1;stroke-dasharray:none" />
    <g
       id="g3162"
       transform="matrix(0.8576995,0,0,0.8576995,-151.10209,952.22769)">
      <g
         word-spacing="normal"
         letter-spacing="normal"
         font-size-adjust="none"
         font-stretch="normal"
         font-weight="normal"
         font-variant="normal"
         font-style="normal"
         stroke-miterlimit="10.433"
         xml:space="preserve"
         transform="matrix(0.71428571,0,0,-0.71428571,-125,375)"
         id="g3164"
         style="font-style:normal;font-variant:normal;font-weight:normal;font-stretch:normal;letter-spacing:normal;word-spacing:normal;text-anchor:start;fill:none;stroke:#000000;stroke-linecap:butt;stroke-linejoin:miter;stroke-miterlimit:10.43299961;stroke-opacity:1;stroke-dasharray:none;stroke-dashoffset:0"><path
           id="path3166"
           d="m 490.8,417.81 0.01,0.02 0.01,0.03 0.02,0.05 0.02,0.05 0.02,0.05 0.02,0.05 0.02,0.05 0.02,0.05 0.01,0.05 0.01,0.03 0.01,0.02 0.01,0.02 0.01,0.03 0,0.02 0.01,0.02 0.01,0.02 0,0.02 0.01,0.02 0,0.02 0.01,0.01 0,0.02 0,0.02 0,0.01 0,0.01 0.01,0.01 c 0,0.05 0,0.55 -0.6,0.55 -0.45,0 -0.55,-0.3 -0.64,-0.61 -3.25,-7.38 -5.08,-10.7 -13.61,-10.7 h -7.26 c -0.71,0 -0.8,0 -1.1,0.04 -0.5,0.05 -0.65,0.1 -0.65,0.5 0,0.14 0,0.25 0.25,1.14 l 3.39,13.61 h 4.93 c 4.24,0 4.24,-1.04 4.24,-2.29 0,-0.35 0,-0.96 -0.36,-2.44 -0.09,-0.25 -0.14,-0.41 -0.14,-0.55 0,-0.25 0.19,-0.55 0.64,-0.55 0.41,0 0.55,0.25 0.75,0.99 l 2.84,11.67 c 0,0.3 -0.25,0.55 -0.61,0.55 -0.43,0 -0.54,-0.3 -0.68,-0.91 -1.05,-3.78 -1.96,-4.92 -6.54,-4.92 h -4.68 l 3,12 c 0.43,1.75 0.5,1.94 2.68,1.94 h 7.02 c 6.08,0 7.58,-1.44 7.58,-5.53 0,-1.19 0,-1.29 -0.2,-2.64 0,-0.3 -0.05,-0.65 -0.05,-0.9 0,-0.25 0.15,-0.59 0.59,-0.59 0.56,0 0.61,0.3 0.71,1.25 l 1,8.61 c 0.14,1.34 -0.1,1.34 -1.35,1.34 h -25.15 c -1,0 -1.5,0 -1.5,-1 0,-0.54 0.45,-0.54 1.39,-0.54 1.84,0 3.23,0 3.23,-0.89 0,-0.21 0,-0.3 -0.25,-1.21 l -6.56,-26.34 c -0.5,-1.95 -0.61,-2.34 -4.55,-2.34 -0.84,0 -1.39,0 -1.39,-0.96 0,-0.59 0.45,-0.59 1.39,-0.59 h 25.86 c 1.16,0 1.2,0.05 1.55,0.84 z"
           inkscape:connector-curvature="0"
           style="fill:#000000;stroke-width:0" /><path
           id="path3168"
           d="m 503.54,420.54 -0.01,0.05 0,0.06 -0.01,0.05 -0.01,0.06 -0.01,0.05 -0.01,0.06 -0.02,0.05 -0.02,0.06 -0.02,0.06 -0.02,0.05 -0.03,0.06 -0.03,0.05 -0.03,0.06 -0.04,0.05 -0.04,0.05 -0.04,0.05 -0.04,0.05 -0.05,0.05 -0.05,0.04 -0.05,0.05 -0.06,0.04 -0.06,0.03 -0.06,0.04 -0.07,0.03 -0.06,0.03 -0.08,0.03 -0.07,0.02 -0.08,0.02 -0.08,0.01 -0.08,0.01 -0.09,0.01 -0.09,0 c -0.94,0 -1.95,-0.91 -1.95,-1.92 0,-0.59 0.45,-1.33 1.4,-1.33 1,0 1.96,0.99 1.96,1.92 z"
           inkscape:connector-curvature="0"
           style="fill:#000000;stroke-width:0" /><path
           id="path3170"
           d="m 496.43,402.84 -0.06,-0.17 -0.05,-0.17 -0.03,-0.08 -0.02,-0.09 -0.03,-0.08 -0.02,-0.09 -0.03,-0.09 -0.02,-0.09 -0.01,-0.1 -0.02,-0.09 -0.01,-0.1 -0.01,-0.05 0,-0.05 0,-0.06 -0.01,-0.05 0,-0.05 0,-0.06 c 0,-1.64 1.39,-2.95 3.3,-2.95 3.48,0 5.03,4.79 5.03,5.33 0,0.45 -0.45,0.45 -0.56,0.45 -0.49,0 -0.53,-0.2 -0.67,-0.59 -0.8,-2.79 -2.33,-4.22 -3.69,-4.22 -0.7,0 -0.88,0.45 -0.88,1.22 0,0.79 0.25,1.46 0.57,2.23 0.34,0.94 0.73,1.87 1.11,2.78 0.31,0.84 1.57,4.02 1.72,4.44 0.09,0.34 0.2,0.76 0.2,1.11 0,1.64 -1.39,2.95 -3.31,2.95 -3.46,0 -5.05,-4.73 -5.05,-5.33 0,-0.45 0.48,-0.45 0.59,-0.45 0.49,0 0.52,0.17 0.63,0.56 0.9,3 2.44,4.25 3.72,4.25 0.56,0 0.87,-0.28 0.87,-1.22 0,-0.79 -0.2,-1.32 -1.08,-3.48 z"
           inkscape:connector-curvature="0"
           style="fill:#000000;stroke-width:0" /><path
           id="path3172"
           d="m 521.57,420.54 0,0.06 0,0.06 -0.01,0.05 -0.01,0.06 -0.01,0.06 -0.01,0.06 -0.02,0.05 -0.02,0.06 -0.02,0.06 -0.03,0.05 -0.03,0.06 -0.03,0.05 -0.03,0.06 -0.04,0.05 -0.04,0.05 -0.04,0.05 -0.04,0.05 -0.05,0.04 -0.05,0.05 -0.05,0.04 -0.06,0.04 -0.06,0.03 -0.06,0.04 -0.06,0.03 -0.07,0.02 -0.07,0.03 -0.07,0.02 -0.08,0.02 -0.08,0.01 -0.08,0.01 -0.08,0.01 -0.09,0 c -1.01,0 -1.95,-0.98 -1.95,-1.92 0,-0.56 0.42,-1.33 1.39,-1.33 0.94,0 1.95,0.91 1.95,1.92 z"
           inkscape:connector-curvature="0"
           style="fill:#000000;stroke-width:0" /><path
           id="path3174"
           d="m 514.18,397.06 -0.06,-0.23 -0.06,-0.22 -0.08,-0.22 -0.08,-0.21 -0.08,-0.21 -0.1,-0.21 -0.09,-0.21 -0.11,-0.2 -0.11,-0.19 -0.12,-0.19 -0.12,-0.19 -0.13,-0.18 -0.13,-0.17 -0.14,-0.17 -0.14,-0.16 -0.14,-0.15 -0.15,-0.15 -0.16,-0.14 -0.16,-0.13 -0.16,-0.13 -0.16,-0.11 -0.17,-0.11 -0.18,-0.1 -0.17,-0.09 -0.18,-0.08 -0.18,-0.07 -0.18,-0.06 -0.18,-0.05 -0.19,-0.04 -0.19,-0.03 -0.19,-0.02 -0.19,0 c -0.45,0 -0.88,0.06 -1.27,0.2 0.91,0.42 1.19,1.25 1.19,1.78 0,0.83 -0.66,1.28 -1.36,1.28 -1.08,0 -1.98,-0.94 -1.98,-2.04 0,-1.33 1.36,-2.21 3.45,-2.21 2.09,0 6.16,1.25 7.25,5.5 l 3.12,12.49 c 0.12,0.37 0.18,0.68 0.18,1.22 0,1.9 -1.63,3.26 -3.72,3.26 -3.88,0 -6.1,-4.84 -6.1,-5.33 0,-0.45 0.49,-0.45 0.6,-0.45 0.4,0 0.45,0.11 0.69,0.62 0.87,2.04 2.68,4.19 4.7,4.19 0.87,0 1.19,-0.59 1.19,-1.7 0,-0.39 -0.07,-0.88 -0.11,-1.05 z"
           inkscape:connector-curvature="0"
           style="fill:#000000;stroke-width:0" /><path
           id="path3176"
           d="m 575.43,422.5 0.14,0 0.15,0 0.14,0 0.07,0.01 0.08,0 0.07,0.01 0.07,0.01 0.07,0.01 0.07,0.01 0.07,0.01 0.06,0.02 0.07,0.02 0.06,0.02 0.06,0.02 0.06,0.03 0.06,0.03 0.05,0.04 0.05,0.03 0.05,0.05 0.04,0.04 0.04,0.05 0.02,0.03 0.02,0.03 0.01,0.02 0.02,0.03 0.01,0.03 0.02,0.04 0.01,0.03 0.01,0.04 0.01,0.03 0.01,0.04 0,0.04 0.01,0.04 0,0.04 0.01,0.04 0,0.04 0,0.05 c 0,1 -0.95,1 -1.64,1 h -29.84 c -0.71,0 -1.64,0 -1.64,-1 0,-0.98 0.93,-0.98 1.68,-0.98 z"
           inkscape:connector-curvature="0"
           style="fill:#000000;stroke-width:0" /><path
           id="path3178"
           d="m 575.48,412.82 0.07,0 0.06,0 0.14,0.01 0.14,0 0.07,0 0.07,0.01 0.07,0.01 0.07,0 0.06,0.01 0.07,0.02 0.07,0.01 0.06,0.02 0.07,0.02 0.06,0.02 0.06,0.02 0.06,0.03 0.05,0.03 0.05,0.04 0.05,0.04 0.05,0.04 0.04,0.05 0.02,0.02 0.02,0.03 0.02,0.02 0.02,0.03 0.01,0.03 0.02,0.03 0.01,0.03 0.02,0.03 0.01,0.04 0.01,0.03 0.01,0.04 0.01,0.04 0,0.04 0.01,0.04 0,0.04 0.01,0.04 0,0.05 0,0.04 c 0,1 -0.95,1 -1.69,1 h -29.75 c -0.75,0 -1.68,0 -1.68,-1 0,-1 0.93,-1 1.64,-1 z"
           inkscape:connector-curvature="0"
           style="fill:#000000;stroke-width:0" /><path
           id="path3180"
           d="m 611.43,447.92 0,0.04 0,0.04 0,0.05 0,0.04 0,0.03 0,0.04 0,0.04 0,0.03 0,0.04 0,0.03 -0.01,0.03 0,0.03 0,0.03 0,0.03 -0.01,0.03 0,0.02 -0.01,0.03 0,0.02 -0.01,0.03 0,0.02 -0.01,0.04 -0.02,0.04 -0.01,0.03 -0.02,0.03 -0.03,0.03 -0.02,0.03 -0.03,0.02 -0.03,0.02 -0.03,0.02 -0.04,0.01 -0.04,0.01 -0.04,0.02 -0.03,0 -0.02,0 -0.03,0.01 -0.02,0 -0.03,0.01 -0.03,0 -0.03,0 -0.03,0 -0.03,0 -0.04,0.01 -0.03,0 -0.04,0 -0.03,0 -0.04,0 -0.04,0 -0.04,0 -0.04,0 -0.04,0 -0.05,0 -0.04,0 c -2.24,-2.2 -5.39,-2.23 -6.83,-2.23 v -1.25 c 0.84,0 3.14,0 5.04,0.97 v -17.77 c 0,-1.16 0,-1.61 -3.48,-1.61 h -1.31 v -1.25 c 0.62,0.03 4.91,0.14 6.2,0.14 1.08,0 5.47,-0.11 6.24,-0.14 v 1.25 h -1.33 c -3.49,0 -3.49,0.45 -3.49,1.61 z"
           inkscape:connector-curvature="0"
           style="fill:#000000;stroke-width:0" /><polyline
           id="polyline3182"
           points="600,418 619.92,418 619.92,420.04 600,420.04 "
           style="fill:#000000;fill-rule:nonzero;stroke-width:0" /><path
           id="path3184"
           d="m 617.35,395.38 h -1.18 c -0.1,-0.76 -0.45,-2.83 -0.91,-3.17 -0.26,-0.2 -2.95,-0.2 -3.44,-0.2 h -6.42 c 3.66,3.23 4.88,4.2 6.97,5.84 2.58,2.06 4.98,4.22 4.98,7.53 0,4.22 -3.68,6.8 -8.15,6.8 -4.31,0 -7.25,-3.03 -7.25,-6.23 0,-1.79 1.5,-1.96 1.86,-1.96 0.83,0 1.84,0.6 1.84,1.85 0,0.62 -0.25,1.84 -2.06,1.84 1.08,2.47 3.45,3.23 5.09,3.23 3.49,0 5.3,-2.7 5.3,-5.53 0,-3.03 -2.16,-5.43 -3.28,-6.68 l -8.39,-8.3 c -0.36,-0.31 -0.36,-0.39 -0.36,-1.36 h 14.36 z"
           inkscape:connector-curvature="0"
           style="fill:#000000;stroke-width:0" /><path
           id="path3186"
           d="m 654.54,389.27 0,0.02 0,0.02 0,0.01 -0.01,0.02 0,0.02 0,0.01 0,0.02 -0.01,0.01 0,0.02 -0.01,0.01 0,0.02 -0.01,0.01 0,0.01 -0.01,0.02 0,0.01 -0.01,0.01 -0.02,0.03 -0.01,0.02 -0.02,0.03 -0.02,0.02 -0.01,0.03 -0.02,0.03 -0.02,0.02 -0.01,0.02 -0.01,0.01 c -2.3,2.44 -5.68,6.49 -7.77,14.6 -1.16,4.53 -1.59,9.67 -1.59,14.29 0,13.11 3.14,22.28 9.11,28.75 0.45,0.46 0.45,0.55 0.45,0.66 0,0.5 -0.41,0.5 -0.59,0.5 -0.75,0 -3.44,-3 -4.1,-3.75 -5.08,-6.02 -8.31,-14.98 -8.31,-26.09 0,-7.08 1.23,-17.1 7.76,-25.52 0.5,-0.59 3.74,-4.39 4.65,-4.39 0.18,0 0.59,0 0.59,0.5 z"
           inkscape:connector-curvature="0"
           style="fill:#000000;stroke-width:0" /><path
           id="path3188"
           d="m 661.15,409.14 -0.01,-0.07 -0.02,-0.08 -0.02,-0.07 -0.01,-0.08 -0.04,-0.16 -0.03,-0.16 -0.04,-0.16 -0.04,-0.16 -0.04,-0.16 -0.03,-0.16 -0.02,-0.08 -0.02,-0.07 -0.01,-0.07 -0.02,-0.07 -0.01,-0.07 -0.02,-0.07 -0.01,-0.06 -0.01,-0.06 -0.01,-0.06 -0.01,-0.05 -0.01,-0.05 -0.01,-0.04 0,-0.04 -0.01,-0.04 0,-0.03 0,-0.02 c 0,-0.89 0.7,-1.35 1.44,-1.35 0.61,0 1.5,0.39 1.84,1.39 0.06,0.11 0.66,2.44 0.95,3.69 l 1.1,4.48 c 0.29,1.1 0.59,2.19 0.84,3.35 0.2,0.84 0.61,2.28 0.66,2.48 0.75,1.55 3.39,6.08 8.11,6.08 2.25,0 2.7,-1.84 2.7,-3.48 0,-1.25 -0.36,-2.64 -0.75,-4.14 l -1.39,-5.79 -1,-3.78 c -0.2,-1 -0.66,-2.68 -0.66,-2.93 0,-0.89 0.71,-1.35 1.46,-1.35 1.54,0 1.84,1.25 2.23,2.85 0.7,2.78 2.55,10.06 3,12 0.14,0.65 2.78,6.62 8.22,6.62 2.14,0 2.69,-1.69 2.69,-3.48 0,-2.85 -2.1,-8.52 -3.1,-11.16 -0.45,-1.2 -0.64,-1.75 -0.64,-2.75 0,-2.33 1.74,-4.08 4.08,-4.08 4.69,0 6.53,7.27 6.53,7.67 0,0.5 -0.45,0.5 -0.59,0.5 -0.5,0 -0.5,-0.15 -0.75,-0.9 -0.75,-2.64 -2.35,-6.17 -5.08,-6.17 -0.86,0 -1.2,0.5 -1.2,1.64 0,1.25 0.45,2.45 0.89,3.54 0.95,2.58 3.04,8.11 3.04,10.96 0,3.23 -2,5.32 -5.73,5.32 -3.74,0 -6.27,-2.18 -8.11,-4.82 -0.06,0.65 -0.2,2.34 -1.61,3.53 -1.23,1.04 -2.83,1.29 -4.08,1.29 -4.48,0 -6.92,-3.18 -7.76,-4.32 -0.25,2.84 -2.35,4.32 -4.6,4.32 -2.28,0 -3.23,-1.93 -3.68,-2.82 -0.9,-1.75 -1.55,-4.69 -1.55,-4.85 0,-0.5 0.5,-0.5 0.61,-0.5 0.5,0 0.54,0.07 0.84,1.16 0.85,3.53 1.85,5.92 3.64,5.92 0.8,0 1.55,-0.39 1.55,-2.28 0,-1.05 -0.16,-1.61 -0.8,-4.19 z"
           inkscape:connector-curvature="0"
           style="fill:#000000;stroke-width:0" /><path
           id="path3190"
           d="m 711.74,420.54 0,0.05 -0.01,0.06 0,0.05 -0.01,0.06 -0.01,0.05 -0.02,0.06 -0.01,0.05 -0.02,0.06 -0.03,0.06 -0.02,0.05 -0.03,0.06 -0.03,0.05 -0.03,0.06 -0.04,0.05 -0.03,0.05 -0.05,0.05 -0.04,0.05 -0.05,0.05 -0.05,0.04 -0.05,0.05 -0.06,0.04 -0.06,0.03 -0.06,0.04 -0.06,0.03 -0.07,0.03 -0.07,0.03 -0.08,0.02 -0.08,0.02 -0.08,0.01 -0.08,0.01 -0.09,0.01 -0.09,0 c -0.93,0 -1.95,-0.91 -1.95,-1.92 0,-0.59 0.45,-1.33 1.4,-1.33 1,0 1.96,0.99 1.96,1.92 z"
           inkscape:connector-curvature="0"
           style="fill:#000000;stroke-width:0" /><path
           id="path3192"
           d="m 704.63,402.84 -0.05,-0.17 -0.06,-0.17 -0.03,-0.08 -0.02,-0.09 -0.03,-0.08 -0.02,-0.09 -0.02,-0.09 -0.02,-0.09 -0.02,-0.1 -0.01,-0.09 -0.02,-0.1 0,-0.05 -0.01,-0.05 0,-0.06 0,-0.05 0,-0.05 0,-0.06 c 0,-1.64 1.39,-2.95 3.29,-2.95 3.49,0 5.04,4.79 5.04,5.33 0,0.45 -0.46,0.45 -0.57,0.45 -0.48,0 -0.53,-0.2 -0.67,-0.59 -0.8,-2.79 -2.33,-4.22 -3.69,-4.22 -0.7,0 -0.87,0.45 -0.87,1.22 0,0.79 0.25,1.46 0.56,2.23 0.34,0.94 0.74,1.87 1.11,2.78 0.31,0.84 1.58,4.02 1.72,4.44 0.09,0.34 0.2,0.76 0.2,1.11 0,1.64 -1.39,2.95 -3.31,2.95 -3.45,0 -5.05,-4.73 -5.05,-5.33 0,-0.45 0.49,-0.45 0.6,-0.45 0.48,0 0.51,0.17 0.62,0.56 0.91,3 2.44,4.25 3.72,4.25 0.56,0 0.88,-0.28 0.88,-1.22 0,-0.79 -0.21,-1.32 -1.08,-3.48 z"
           inkscape:connector-curvature="0"
           style="fill:#000000;stroke-width:0" /><path
           id="path3194"
           d="m 725.04,441.78 0,0.16 0,0.17 0,0.16 -0.01,0.08 0,0.08 -0.01,0.08 -0.01,0.08 -0.01,0.07 -0.01,0.07 -0.01,0.07 -0.02,0.07 -0.02,0.07 -0.02,0.06 -0.03,0.06 -0.02,0.06 -0.04,0.06 -0.03,0.05 -0.04,0.05 -0.04,0.05 -0.05,0.04 -0.05,0.04 -0.03,0.01 -0.02,0.02 -0.03,0.02 -0.03,0.01 -0.03,0.01 -0.04,0.02 -0.03,0.01 -0.04,0.01 -0.03,0.01 -0.04,0.01 -0.04,0 -0.04,0.01 -0.04,0 -0.05,0.01 -0.04,0 -0.05,0 c -1,0 -1,-0.89 -1,-1.78 v -46.24 c 0,-0.9 0,-1.79 1,-1.79 1,0 1,0.89 1,1.79 z"
           inkscape:connector-curvature="0"
           style="fill:#000000;stroke-width:0" /><path
           id="path3196"
           d="m 756.12,424.93 0.06,0.13 0.06,0.12 0.03,0.06 0.03,0.05 0.04,0.05 0.04,0.05 0.04,0.05 0.05,0.05 0.06,0.04 0.05,0.04 0.07,0.04 0.07,0.04 0.08,0.04 0.09,0.03 0.09,0.03 0.11,0.03 0.11,0.03 0.12,0.02 0.14,0.03 0.07,0.01 0.07,0.01 0.08,0.01 0.08,0.01 0.09,0.01 0.08,0.01 0.09,0 0.09,0.01 0.1,0.01 0.1,0 0.11,0.01 0.1,0 0.11,0.01 0.12,0 0.12,0.01 0.12,0 0.13,0 0.13,0.01 0.13,0 0.14,0 0.14,0 0.15,0 v 2.34 c -1.24,-0.11 -2.69,-0.15 -3.94,-0.15 -1.23,0 -3.48,0.11 -4.53,0.15 v -2.34 c 0.95,0 2.39,-0.16 2.39,-0.55 0,-0.04 -0.05,-0.15 -0.25,-0.59 l -5.76,-12.47 -6.33,13.61 h 2.68 v 2.34 c -1.64,-0.11 -6.12,-0.15 -6.18,-0.15 -1.39,0 -3.63,0.11 -5.67,0.15 v -2.34 h 3.18 l 8.72,-18.73 c 0.6,-1.25 1.25,-1.25 1.89,-1.25 0.84,0 1.34,0.15 1.84,1.2 z"
           inkscape:connector-curvature="0"
           style="fill:#000000;stroke-width:0" /><path
           id="path3198"
           d="m 772.46,420.54 0,0.05 -0.01,0.06 0,0.05 -0.01,0.06 -0.01,0.05 -0.02,0.06 -0.02,0.05 -0.01,0.06 -0.03,0.06 -0.02,0.05 -0.03,0.06 -0.03,0.05 -0.03,0.06 -0.04,0.05 -0.04,0.05 -0.04,0.05 -0.04,0.05 -0.05,0.05 -0.05,0.04 -0.05,0.05 -0.06,0.04 -0.06,0.03 -0.06,0.04 -0.06,0.03 -0.07,0.03 -0.07,0.03 -0.08,0.02 -0.08,0.02 -0.08,0.01 -0.08,0.01 -0.09,0.01 -0.09,0 c -0.94,0 -1.95,-0.91 -1.95,-1.92 0,-0.59 0.45,-1.33 1.4,-1.33 1,0 1.96,0.99 1.96,1.92 z"
           inkscape:connector-curvature="0"
           style="fill:#000000;stroke-width:0" /><path
           id="path3200"
           d="m 765.35,402.84 -0.06,-0.17 -0.05,-0.17 -0.03,-0.08 -0.02,-0.09 -0.03,-0.08 -0.02,-0.09 -0.02,-0.09 -0.02,-0.09 -0.02,-0.1 -0.02,-0.09 -0.01,-0.1 0,-0.05 -0.01,-0.05 0,-0.06 0,-0.05 0,-0.05 -0.01,-0.06 c 0,-1.64 1.4,-2.95 3.3,-2.95 3.49,0 5.03,4.79 5.03,5.33 0,0.45 -0.45,0.45 -0.56,0.45 -0.48,0 -0.53,-0.2 -0.67,-0.59 -0.8,-2.79 -2.33,-4.22 -3.69,-4.22 -0.7,0 -0.87,0.45 -0.87,1.22 0,0.79 0.25,1.46 0.56,2.23 0.34,0.94 0.73,1.87 1.11,2.78 0.31,0.84 1.58,4.02 1.72,4.44 0.09,0.34 0.2,0.76 0.2,1.11 0,1.64 -1.39,2.95 -3.31,2.95 -3.45,0 -5.05,-4.73 -5.05,-5.33 0,-0.45 0.48,-0.45 0.6,-0.45 0.48,0 0.51,0.17 0.62,0.56 0.91,3 2.44,4.25 3.72,4.25 0.56,0 0.87,-0.28 0.87,-1.22 0,-0.79 -0.2,-1.32 -1.08,-3.48 z"
           inkscape:connector-curvature="0"
           style="fill:#000000;stroke-width:0" /><path
           id="path3202"
           d="m 785.64,441.78 0,0.16 0,0.17 -0.01,0.16 0,0.08 0,0.08 -0.01,0.08 -0.01,0.08 -0.01,0.07 -0.01,0.07 -0.02,0.07 -0.01,0.07 -0.02,0.07 -0.02,0.06 -0.03,0.06 -0.03,0.06 -0.03,0.06 -0.03,0.05 -0.04,0.05 -0.04,0.05 -0.05,0.04 -0.05,0.04 -0.03,0.01 -0.03,0.02 -0.03,0.02 -0.03,0.01 -0.03,0.01 -0.03,0.02 -0.03,0.01 -0.04,0.01 -0.04,0.01 -0.03,0.01 -0.04,0 -0.04,0.01 -0.04,0 -0.05,0.01 -0.04,0 -0.05,0 c -1,0 -1,-0.89 -1,-1.78 v -46.24 c 0,-0.9 0,-1.79 1,-1.79 1,0 1,0.89 1,1.79 z"
           inkscape:connector-curvature="0"
           style="fill:#000000;stroke-width:0" /><path
           id="path3204"
           d="m 809.11,430.54 h -1.18 c -0.1,-0.76 -0.46,-2.83 -0.91,-3.17 -0.27,-0.2 -2.95,-0.2 -3.44,-0.2 h -6.42 c 3.66,3.23 4.87,4.2 6.97,5.84 2.58,2.06 4.98,4.22 4.98,7.53 0,4.22 -3.68,6.8 -8.15,6.8 -4.31,0 -7.25,-3.03 -7.25,-6.23 0,-1.79 1.5,-1.96 1.86,-1.96 0.83,0 1.84,0.6 1.84,1.85 0,0.62 -0.25,1.84 -2.06,1.84 1.08,2.47 3.45,3.23 5.09,3.23 3.49,0 5.3,-2.7 5.3,-5.53 0,-3.03 -2.16,-5.43 -3.28,-6.68 l -8.39,-8.3 c -0.36,-0.31 -0.36,-0.39 -0.36,-1.36 h 14.36 z"
           inkscape:connector-curvature="0"
           style="fill:#000000;stroke-width:0" /><path
           id="path3206"
           d="m 845.38,417.65 h 13.9 c 0.69,0 1.64,0 1.64,1 0,1 -0.95,1 -1.64,1 h -13.9 v 13.96 c 0,0.68 0,1.64 -1,1.64 -0.99,0 -0.99,-0.96 -0.99,-1.64 v -13.96 h -13.95 c -0.71,0 -1.64,0 -1.64,-1 0,-1 0.93,-1 1.64,-1 h 13.95 v -13.94 c 0,-0.7 0,-1.65 0.99,-1.65 1,0 1,0.95 1,1.65 z"
           inkscape:connector-curvature="0"
           style="fill:#000000;stroke-width:0" /><path
           id="path3208"
           d="m 879.19,409.14 -0.02,-0.07 -0.01,-0.08 -0.02,-0.07 -0.02,-0.08 -0.03,-0.16 -0.04,-0.16 -0.04,-0.16 -0.03,-0.16 -0.04,-0.16 -0.04,-0.16 -0.02,-0.08 -0.01,-0.07 -0.02,-0.07 -0.01,-0.07 -0.02,-0.07 -0.01,-0.07 -0.02,-0.06 -0.01,-0.06 -0.01,-0.06 -0.01,-0.05 -0.01,-0.05 0,-0.04 -0.01,-0.04 0,-0.04 -0.01,-0.03 0,-0.02 c 0,-0.89 0.71,-1.35 1.44,-1.35 0.61,0 1.5,0.39 1.85,1.39 0.06,0.11 0.65,2.44 0.95,3.69 l 1.09,4.48 c 0.3,1.1 0.6,2.19 0.85,3.35 0.2,0.84 0.61,2.28 0.65,2.48 0.75,1.55 3.39,6.08 8.11,6.08 2.25,0 2.71,-1.84 2.71,-3.48 0,-1.25 -0.36,-2.64 -0.76,-4.14 l -1.39,-5.79 -1,-3.78 c -0.2,-1 -0.65,-2.68 -0.65,-2.93 0,-0.89 0.7,-1.35 1.45,-1.35 1.55,0 1.85,1.25 2.24,2.85 0.7,2.78 2.54,10.06 3,12 0.14,0.65 2.78,6.62 8.21,6.62 2.14,0 2.69,-1.69 2.69,-3.48 0,-2.85 -2.09,-8.52 -3.09,-11.16 -0.46,-1.2 -0.64,-1.75 -0.64,-2.75 0,-2.33 1.73,-4.08 4.08,-4.08 4.68,0 6.53,7.27 6.53,7.67 0,0.5 -0.46,0.5 -0.6,0.5 -0.5,0 -0.5,-0.15 -0.75,-0.9 -0.75,-2.64 -2.34,-6.17 -5.08,-6.17 -0.85,0 -1.2,0.5 -1.2,1.64 0,1.25 0.46,2.45 0.89,3.54 0.96,2.58 3.05,8.11 3.05,10.96 0,3.23 -2,5.32 -5.74,5.32 -3.73,0 -6.26,-2.18 -8.1,-4.82 -0.07,0.65 -0.21,2.34 -1.61,3.53 -1.24,1.04 -2.83,1.29 -4.08,1.29 -4.49,0 -6.92,-3.18 -7.77,-4.32 -0.25,2.84 -2.34,4.32 -4.59,4.32 -2.28,0 -3.24,-1.93 -3.69,-2.82 -0.89,-1.75 -1.55,-4.69 -1.55,-4.85 0,-0.5 0.5,-0.5 0.61,-0.5 0.5,0 0.55,0.07 0.85,1.16 0.84,3.53 1.84,5.92 3.64,5.92 0.79,0 1.55,-0.39 1.55,-2.28 0,-1.05 -0.16,-1.61 -0.8,-4.19 z"
           inkscape:connector-curvature="0"
           style="fill:#000000;stroke-width:0" /><path
           id="path3210"
           d="m 933.78,420.54 0,0.06 -0.01,0.06 0,0.05 -0.01,0.06 -0.02,0.06 -0.01,0.06 -0.02,0.05 -0.02,0.06 -0.02,0.06 -0.03,0.05 -0.02,0.06 -0.04,0.05 -0.03,0.06 -0.04,0.05 -0.03,0.05 -0.05,0.05 -0.04,0.05 -0.05,0.04 -0.05,0.05 -0.05,0.04 -0.06,0.04 -0.06,0.03 -0.06,0.04 -0.06,0.03 -0.07,0.02 -0.07,0.03 -0.07,0.02 -0.07,0.02 -0.08,0.01 -0.08,0.01 -0.09,0.01 -0.08,0 c -1.02,0 -1.96,-0.98 -1.96,-1.92 0,-0.56 0.42,-1.33 1.39,-1.33 0.94,0 1.96,0.91 1.96,1.92 z"
           inkscape:connector-curvature="0"
           style="fill:#000000;stroke-width:0" /><path
           id="path3212"
           d="m 926.39,397.06 -0.06,-0.23 -0.07,-0.22 -0.07,-0.22 -0.08,-0.21 -0.09,-0.21 -0.09,-0.21 -0.1,-0.21 -0.11,-0.2 -0.11,-0.19 -0.11,-0.19 -0.13,-0.19 -0.12,-0.18 -0.14,-0.17 -0.13,-0.17 -0.14,-0.16 -0.15,-0.15 -0.15,-0.15 -0.16,-0.14 -0.15,-0.13 -0.17,-0.13 -0.16,-0.11 -0.17,-0.11 -0.17,-0.1 -0.18,-0.09 -0.17,-0.08 -0.18,-0.07 -0.19,-0.06 -0.18,-0.05 -0.19,-0.04 -0.19,-0.03 -0.19,-0.02 -0.19,0 c -0.45,0 -0.87,0.06 -1.26,0.2 0.9,0.42 1.18,1.25 1.18,1.78 0,0.83 -0.65,1.28 -1.35,1.28 -1.08,0 -1.99,-0.94 -1.99,-2.04 0,-1.33 1.36,-2.21 3.45,-2.21 2.1,0 6.16,1.25 7.25,5.5 l 3.13,12.49 c 0.11,0.37 0.17,0.68 0.17,1.22 0,1.9 -1.63,3.26 -3.72,3.26 -3.87,0 -6.09,-4.84 -6.09,-5.33 0,-0.45 0.48,-0.45 0.59,-0.45 0.41,0 0.46,0.11 0.69,0.62 0.87,2.04 2.69,4.19 4.7,4.19 0.88,0 1.19,-0.59 1.19,-1.7 0,-0.39 -0.06,-0.88 -0.11,-1.05 z"
           inkscape:connector-curvature="0"
           style="fill:#000000;stroke-width:0" /><path
           id="path3214"
           d="m 947.52,441.78 0,0.16 0,0.17 0,0.16 -0.01,0.08 0,0.08 -0.01,0.08 -0.01,0.08 -0.01,0.07 -0.01,0.07 -0.01,0.07 -0.02,0.07 -0.02,0.07 -0.02,0.06 -0.03,0.06 -0.02,0.06 -0.04,0.06 -0.03,0.05 -0.04,0.05 -0.04,0.05 -0.05,0.04 -0.05,0.04 -0.03,0.01 -0.02,0.02 -0.03,0.02 -0.03,0.01 -0.03,0.01 -0.04,0.02 -0.03,0.01 -0.04,0.01 -0.03,0.01 -0.04,0.01 -0.04,0 -0.04,0.01 -0.04,0 -0.05,0.01 -0.04,0 -0.05,0 c -1,0 -1,-0.89 -1,-1.78 v -46.24 c 0,-0.9 0,-1.79 1,-1.79 1,0 1,0.89 1,1.79 z"
           inkscape:connector-curvature="0"
           style="fill:#000000;stroke-width:0" /><path
           id="path3216"
           d="m 978.6,424.93 0.06,0.13 0.06,0.12 0.03,0.06 0.04,0.05 0.03,0.05 0.04,0.05 0.05,0.05 0.04,0.05 0.06,0.04 0.06,0.04 0.06,0.04 0.07,0.04 0.08,0.04 0.09,0.03 0.09,0.03 0.11,0.03 0.11,0.03 0.12,0.02 0.14,0.03 0.07,0.01 0.07,0.01 0.08,0.01 0.08,0.01 0.09,0.01 0.08,0.01 0.09,0 0.1,0.01 0.09,0.01 0.1,0 0.11,0.01 0.1,0 0.11,0.01 0.12,0 0.12,0.01 0.12,0 0.13,0 0.13,0.01 0.13,0 0.14,0 0.14,0 0.15,0 v 2.34 c -1.24,-0.11 -2.69,-0.15 -3.94,-0.15 -1.23,0 -3.48,0.11 -4.53,0.15 v -2.34 c 0.95,0 2.39,-0.16 2.39,-0.55 0,-0.04 -0.05,-0.15 -0.25,-0.59 l -5.76,-12.47 -6.33,13.61 h 2.68 v 2.34 c -1.64,-0.11 -6.12,-0.15 -6.18,-0.15 -1.39,0 -3.63,0.11 -5.67,0.15 v -2.34 h 3.18 l 8.72,-18.73 c 0.6,-1.25 1.25,-1.25 1.89,-1.25 0.85,0 1.35,0.15 1.85,1.2 z"
           inkscape:connector-curvature="0"
           style="fill:#000000;stroke-width:0" /><path
           id="path3218"
           d="m 998.94,420.54 0,0.06 -0.01,0.06 0,0.05 -0.01,0.06 -0.02,0.06 -0.01,0.06 -0.02,0.05 -0.02,0.06 -0.02,0.06 -0.03,0.05 -0.02,0.06 -0.04,0.05 -0.03,0.06 -0.04,0.05 -0.03,0.05 -0.05,0.05 -0.04,0.05 -0.05,0.04 -0.05,0.05 -0.05,0.04 -0.06,0.04 -0.06,0.03 -0.06,0.04 -0.06,0.03 -0.07,0.02 -0.07,0.03 -0.07,0.02 -0.07,0.02 -0.08,0.01 -0.08,0.01 -0.09,0.01 -0.08,0 c -1.02,0 -1.96,-0.98 -1.96,-1.92 0,-0.56 0.43,-1.33 1.39,-1.33 0.94,0 1.96,0.91 1.96,1.92 z"
           inkscape:connector-curvature="0"
           style="fill:#000000;stroke-width:0" /><path
           id="path3220"
           d="m 991.55,397.06 -0.06,-0.23 -0.07,-0.22 -0.07,-0.22 -0.08,-0.21 -0.09,-0.21 -0.09,-0.21 -0.1,-0.21 -0.11,-0.2 -0.11,-0.19 -0.11,-0.19 -0.13,-0.19 -0.12,-0.18 -0.14,-0.17 -0.13,-0.17 -0.14,-0.16 -0.15,-0.15 -0.15,-0.15 -0.16,-0.14 -0.15,-0.13 -0.17,-0.13 -0.16,-0.11 -0.17,-0.11 -0.17,-0.1 -0.18,-0.09 -0.17,-0.08 -0.18,-0.07 -0.19,-0.06 -0.18,-0.05 -0.19,-0.04 -0.19,-0.03 -0.19,-0.02 -0.19,0 c -0.45,0 -0.87,0.06 -1.26,0.2 0.9,0.42 1.18,1.25 1.18,1.78 0,0.83 -0.65,1.28 -1.36,1.28 -1.07,0 -1.98,-0.94 -1.98,-2.04 0,-1.33 1.36,-2.21 3.45,-2.21 2.1,0 6.16,1.25 7.25,5.5 l 3.13,12.49 c 0.11,0.37 0.17,0.68 0.17,1.22 0,1.9 -1.62,3.26 -3.72,3.26 -3.87,0 -6.09,-4.84 -6.09,-5.33 0,-0.45 0.48,-0.45 0.59,-0.45 0.41,0 0.46,0.11 0.69,0.62 0.87,2.04 2.69,4.19 4.7,4.19 0.88,0 1.19,-0.59 1.19,-1.7 0,-0.39 -0.06,-0.88 -0.11,-1.05 z"
           inkscape:connector-curvature="0"
           style="fill:#000000;stroke-width:0" /><path
           id="path3222"
           d="m 1012.6,441.78 0,0.16 0,0.17 0,0.16 -0.1,0.08 0,0.08 0,0.08 0,0.08 0,0.07 0,0.07 0,0.07 0,0.07 0,0.07 -0.1,0.06 0,0.06 0,0.06 0,0.06 -0.1,0.05 0,0.05 -0.1,0.05 0,0.04 -0.1,0.04 0,0.01 0,0.02 0,0.02 -0.1,0.01 0,0.01 0,0.02 -0.1,0.01 0,0.01 0,0.01 -0.1,0.01 0,0 -0.1,0.01 0,0 0,0.01 -0.1,0 0,0 c -1,0 -1,-0.89 -1,-1.78 v -46.24 c 0,-0.9 0,-1.79 1,-1.79 1,0 1,0.89 1,1.79 z"
           inkscape:connector-curvature="0"
           style="fill:#000000;stroke-width:0" /><path
           id="path3224"
           d="m 1036,430.54 h -1.2 c 0,-0.76 -0.4,-2.83 -0.9,-3.17 -0.2,-0.2 -2.9,-0.2 -3.4,-0.2 h -6.4 c 3.6,3.23 4.9,4.2 7,5.84 2.5,2.06 4.9,4.22 4.9,7.53 0,4.22 -3.7,6.8 -8.1,6.8 -4.3,0 -7.3,-3.03 -7.3,-6.23 0,-1.79 1.5,-1.96 1.9,-1.96 0.8,0 1.8,0.6 1.8,1.85 0,0.62 -0.2,1.84 -2,1.84 1,2.47 3.4,3.23 5.1,3.23 3.4,0 5.3,-2.7 5.3,-5.53 0,-3.03 -2.2,-5.43 -3.3,-6.68 l -8.4,-8.3 c -0.4,-0.31 -0.4,-0.39 -0.4,-1.36 h 14.4 z"
           inkscape:connector-curvature="0"
           style="fill:#000000;stroke-width:0" /><path
           id="path3226"
           d="m 1056,418.61 -0.1,1.36 0,1.43 -0.1,1.47 -0.1,1.53 -0.2,1.57 -0.3,1.61 -0.3,1.63 -0.4,1.66 -0.2,0.83 -0.2,0.84 -0.3,0.84 -0.3,0.84 -0.3,0.84 -0.3,0.84 -0.4,0.85 -0.3,0.83 -0.5,0.84 -0.4,0.83 -0.4,0.83 -0.5,0.82 -0.5,0.82 -0.6,0.81 -0.5,0.8 -0.6,0.8 c -0.5,0.59 -3.8,4.39 -4.6,4.39 -0.3,0 -0.7,-0.11 -0.7,-0.5 0,-0.2 0.2,-0.36 0.3,-0.5 2.4,-2.59 5.7,-6.63 7.7,-14.55 1.2,-4.53 1.6,-9.67 1.6,-14.29 0,-5.04 -0.4,-10.13 -1.7,-15 -1.9,-6.99 -4.9,-10.97 -7.4,-13.75 -0.5,-0.46 -0.5,-0.55 -0.5,-0.66 0,-0.39 0.4,-0.5 0.7,-0.5 0.7,0 3.4,3.05 4,3.75 5.1,6.02 8.4,14.98 8.4,26.09 z"
           inkscape:connector-curvature="0"
           style="fill:#000000;stroke-width:0" /><path
           id="path3228"
           d="m 1095.1,417.65 h 13.9 c 0.7,0 1.6,0 1.6,1 0,1 -0.9,1 -1.6,1 h -13.9 v 13.96 c 0,0.68 0,1.64 -1,1.64 -1,0 -1,-0.96 -1,-1.64 v -13.96 h -13.9 c -0.8,0 -1.7,0 -1.7,-1 0,-1 0.9,-1 1.7,-1 h 13.9 v -13.94 c 0,-0.7 0,-1.65 1,-1.65 1,0 1,0.95 1,1.65 z"
           inkscape:connector-curvature="0"
           style="fill:#000000;stroke-width:0" /><path
           id="path3230"
           d="m 1155.8,434.54 0.2,0.36 0.3,0.33 0.2,0.31 0.2,0.29 0.2,0.28 0.2,0.25 0.3,0.24 0.2,0.22 0.2,0.2 0.2,0.19 0.2,0.17 0.2,0.16 0.2,0.14 0.2,0.13 0.2,0.12 0.2,0.11 0.2,0.09 0.2,0.09 0.2,0.07 0.2,0.07 0.2,0.06 0.2,0.05 0.2,0.04 0.2,0.03 0.1,0.03 0.2,0.03 0.4,0.04 0.3,0.02 0.4,0.02 c 0.6,0.05 0.6,0.89 0.6,0.96 0,0.39 -0.2,0.59 -0.6,0.59 -1.3,0 -2.8,-0.16 -4.1,-0.16 -1.6,0 -3.3,0.16 -4.9,0.16 -0.3,0 -1,0 -1,-0.95 0,-0.55 0.5,-0.6 0.8,-0.6 1.4,-0.09 2.3,-0.59 2.3,-1.64 0,-0.75 -0.7,-1.84 -0.7,-1.89 l -15.3,-24.31 -3.4,26.34 c 0,0.85 1.1,1.5 3.4,1.5 0.7,0 1.3,0 1.3,1 0,0.44 -0.4,0.55 -0.7,0.55 -2,0 -4.2,-0.16 -6.2,-0.16 -0.9,0 -1.9,0.05 -2.8,0.05 -0.8,0 -1.8,0.11 -2.7,0.11 -0.3,0 -0.9,0 -0.9,-0.95 0,-0.6 0.5,-0.6 1.3,-0.6 2.7,0 2.8,-0.45 3,-1.68 l 3.9,-30.75 c 0.1,-1 0.3,-1.14 1,-1.14 0.8,0 1,0.25 1.4,0.89 z"
           inkscape:connector-curvature="0"
           style="fill:#000000;stroke-width:0" /><path
           id="path3232"
           d="m 1164.9,420.54 0,0.05 0,0.06 -0.1,0.05 0,0.06 0,0.05 0,0.06 0,0.05 0,0.06 0,0.06 -0.1,0.05 0,0.06 0,0.05 -0.1,0.06 0,0.05 0,0.05 -0.1,0.05 0,0.05 -0.1,0.05 0,0.04 -0.1,0.05 0,0.04 -0.1,0.03 -0.1,0.04 0,0.03 -0.1,0.03 -0.1,0.03 0,0.02 -0.1,0.02 -0.1,0.01 -0.1,0.01 -0.1,0.01 -0.1,0 c -0.9,0 -1.9,-0.91 -1.9,-1.92 0,-0.59 0.4,-1.33 1.4,-1.33 1,0 2,0.99 2,1.92 z"
           inkscape:connector-curvature="0"
           style="fill:#000000;stroke-width:0" /><path
           id="path3234"
           d="m 1157.8,402.84 -0.1,-0.08 0,-0.09 -0.1,-0.17 0,-0.08 0,-0.09 0,-0.08 -0.1,-0.09 0,-0.09 0,-0.09 0,-0.1 0,-0.09 0,-0.05 -0.1,-0.05 0,-0.05 0,-0.05 0,-0.06 0,-0.05 0,-0.05 0,-0.06 c 0,-1.64 1.4,-2.95 3.3,-2.95 3.5,0 5.1,4.79 5.1,5.33 0,0.45 -0.5,0.45 -0.6,0.45 -0.5,0 -0.5,-0.2 -0.7,-0.59 -0.8,-2.79 -2.3,-4.22 -3.7,-4.22 -0.7,0 -0.8,0.45 -0.8,1.22 0,0.79 0.2,1.46 0.5,2.23 0.4,0.94 0.8,1.87 1.1,2.78 0.3,0.84 1.6,4.02 1.8,4.44 0,0.34 0.2,0.76 0.2,1.11 0,1.64 -1.4,2.95 -3.4,2.95 -3.4,0 -5,-4.73 -5,-5.33 0,-0.45 0.5,-0.45 0.6,-0.45 0.5,0 0.5,0.17 0.6,0.56 0.9,3 2.5,4.25 3.7,4.25 0.6,0 0.9,-0.28 0.9,-1.22 0,-0.79 -0.2,-1.32 -1.1,-3.48 z"
           inkscape:connector-curvature="0"
           style="fill:#000000;stroke-width:0" /><path
           id="path3236"
           d="m 1182.9,420.54 0,0.06 0,0.06 0,0.05 0,0.06 0,0.06 -0.1,0.06 0,0.05 0,0.06 0,0.06 0,0.05 -0.1,0.06 0,0.05 0,0.06 -0.1,0.05 0,0.05 -0.1,0.05 0,0.05 0,0.04 -0.1,0.05 0,0.04 -0.1,0.04 -0.1,0.03 0,0.04 -0.1,0.03 -0.1,0.02 0,0.03 -0.1,0.02 -0.1,0.02 0,0.01 -0.1,0.01 -0.1,0.01 -0.1,0 c -1,0 -1.9,-0.98 -1.9,-1.92 0,-0.56 0.4,-1.33 1.3,-1.33 1,0 2,0.91 2,1.92 z"
           inkscape:connector-curvature="0"
           style="fill:#000000;stroke-width:0" /><path
           id="path3238"
           d="m 1175.5,397.06 -0.1,-0.23 0,-0.22 -0.1,-0.22 -0.1,-0.21 -0.1,-0.21 -0.1,-0.21 -0.1,-0.21 -0.1,-0.2 -0.1,-0.19 -0.1,-0.19 -0.1,-0.19 -0.1,-0.18 -0.2,-0.17 -0.1,-0.17 -0.1,-0.16 -0.2,-0.15 -0.1,-0.15 -0.2,-0.14 -0.2,-0.13 -0.1,-0.13 -0.2,-0.11 -0.2,-0.11 -0.1,-0.1 -0.2,-0.09 -0.2,-0.08 -0.2,-0.07 -0.1,-0.06 -0.2,-0.05 -0.2,-0.04 -0.2,-0.03 -0.2,-0.02 -0.2,0 c -0.4,0 -0.9,0.06 -1.2,0.2 0.9,0.42 1.1,1.25 1.1,1.78 0,0.83 -0.6,1.28 -1.3,1.28 -1.1,0 -2,-0.94 -2,-2.04 0,-1.33 1.4,-2.21 3.5,-2.21 2,0 6.1,1.25 7.2,5.5 l 3.1,12.49 c 0.1,0.37 0.2,0.68 0.2,1.22 0,1.9 -1.6,3.26 -3.7,3.26 -3.9,0 -6.1,-4.84 -6.1,-5.33 0,-0.45 0.5,-0.45 0.6,-0.45 0.4,0 0.4,0.11 0.7,0.62 0.8,2.04 2.7,4.19 4.7,4.19 0.8,0 1.2,-0.59 1.2,-1.7 0,-0.39 -0.1,-0.88 -0.2,-1.05 z"
           inkscape:connector-curvature="0"
           style="fill:#000000;stroke-width:0" /></g>    </g>
  </g>
</svg>
